<svg xmlns="http://www.w3.org/2000/svg" viewBox="0 0 32 32"><path fill="#fff" d="M25 18a3 3 0 0 0 3-3 3 3 0 0 0-3-3 3 3 0 0 0-3 3 3 3 0 0 0 3 3zm-1-4h2v2h-2v-2zm1 12a3 3 0 0 0 3-3 3 3 0 0 0-3-3 3 3 0 0 0-3 3 3 3 0 0 0 3 3zm-1-4h2v2h-2v-2zm-7 4a3 3 0 0 0 3-3 3 3 0 0 0-3-3 3 3 0 0 0-3 3 3 3 0 0 0 3 3zm-1-4h2v2h-2v-2zM28 0H6a4 4 0 0 0-4 4v24a4 4 0 0 0 4 4h22a4 4 0 0 0 4-4V4a4 4 0 0 0-4-4zm2 28a2 2 0 0 1-2 2H6a2 2 0 0 1-2-2V8h26v20zm0-22H4V4c0-1.1.9-2 2-2h22a2 2 0 0 1 2 2v2zM17 18a3 3 0 0 0 3-3 3 3 0 0 0-3-3 3 3 0 0 0-3 3 3 3 0 0 0 3 3zm-1-4h2v2h-2v-2zM9 26a3 3 0 0 0 3-3 3 3 0 0 0-3-3 3 3 0 0 0-3 3 3 3 0 0 0 3 3zm-1-4h2v2H8v-2zm1-4a3 3 0 0 0 3-3 3 3 0 0 0-3-3 3 3 0 0 0-3 3 3 3 0 0 0 3 3zm-1-4h2v2H8v-2z"/></svg>