<svg xmlns="http://www.w3.org/2000/svg" viewBox="0 0 32 32"><path fill="#00f" d="M17.7 25.7l-.1-.8-.2-.7-.3-.7-.4-.6-.5-.6-.5-.5-.6-.5-.6-.4-.6-.4-.6-.4h-1l-2 .1c-.7.1-1.4.2-2.1.5-.7.2-1.3.5-1.9.9s-1 .8-1.3 1.4c-.3.6-.5 1.3-.5 2.1 0 .9.2 1.7.7 2.3.5.7 1.1 1.2 1.8 1.6s1.5.7 2.3.9l2.4.3 2.2-.2c.7-.2 1.3-.4 1.9-.8.6-.3 1.1-.8 1.4-1.4.3-.6.5-1.3.5-2.1zM15.4 9.1a11.3 11.3 0 0 0-1.2-5c-.4-.8-.9-1.5-1.6-2a4 4 0 0 0-2.3-.8c-1.2 0-2.1.4-2.8 1.3-.7.9-1 1.9-1 3.2l.2 1.9c.1.7.4 1.3.7 2 .3.7.7 1.3 1.1 1.8.4.5.9 1 1.5 1.3.6.3 1.2.5 1.9.5 1.2 0 2.1-.4 2.7-1.2.5-.7.8-1.7.8-3zM12.9 0h8.4l-2.6 1.5h-2.6c.9.6 1.6 1.4 2.1 2.4a7.2 7.2 0 0 1 .4 5.7c-.3.7-.7 1.3-1.1 1.8-.4.4-.8.9-1.3 1.2l-1.1 1.2a2 2 0 0 0-.4 1.3c0 .3.1.7.3 1l.8.9 1.1.9 1.2 1.1 1.1 1.3.8 1.6a6.8 6.8 0 0 1-2.4 7.4c-1.9 1.7-4.6 2.5-8.1 2.5l-2.3-.2a10.3 10.3 0 0 1-4.4-1.7 5 5 0 0 1-1.5-1.7C1 27.6.8 26.9.8 26c0-.8.2-1.6.7-2.6a6 6 0 0 1 1.8-2.1c.8-.6 1.8-1.1 2.8-1.4a32.5 32.5 0 0 1 5.9-1c-.8-1.1-1.2-2-1.2-2.9v-.5l.1-.4.2-.4.1-.4-1.3.1c-1.9 0-3.5-.6-4.9-1.9a6 6 0 0 1-2-4.7C3 6 3.6 4.4 4.8 3A8.5 8.5 0 0 1 9.3.4c1.2-.3 2.4-.4 3.6-.4zm19.9 4.9v2.5h-4.9v4.9h-2.5V7.4h-4.9V4.9h4.9V0h2.5v4.9h4.9z"/></svg>