<svg xmlns="http://www.w3.org/2000/svg" viewBox="0 0 32 32"><path fill="#fff" d="M26 24H14.9a4 4 0 0 0-3.9-3 4 4 0 0 0-3.9 3H6c-.6 0-1 .4-1 1s.4 1 1 1h1.1a4 4 0 0 0 3.9 3 4 4 0 0 0 3.9-3H26c.6 0 1-.4 1-1s-.4-1-1-1zm-15 3.4A2.4 2.4 0 0 1 8.6 25c0-1.3 1.1-2.4 2.4-2.4 1.3 0 2.4 1.1 2.4 2.4 0 1.3-1.1 2.4-2.4 2.4zM26 8H14.9A4 4 0 0 0 11 5a4 4 0 0 0-3.9 3H6c-.6 0-1 .4-1 1s.4 1 1 1h1.1a4 4 0 0 0 3.9 3 4 4 0 0 0 3.9-3H26c.6 0 1-.4 1-1s-.4-1-1-1zm-15 3.4A2.4 2.4 0 0 1 8.6 9c0-1.3 1.1-2.4 2.4-2.4 1.3 0 2.4 1.1 2.4 2.4 0 1.3-1.1 2.4-2.4 2.4zM26 16h-2.1a4 4 0 0 0-3.9-3 4 4 0 0 0-3.9 3H6c-.6 0-1 .4-1 1s.4 1 1 1h10.1a4 4 0 0 0 3.9 3 4 4 0 0 0 3.9-3H26c.6 0 1-.4 1-1s-.4-1-1-1zm-6 3.4a2.4 2.4 0 0 1-2.4-2.4c0-1.3 1.1-2.4 2.4-2.4 1.3 0 2.4 1.1 2.4 2.4 0 1.3-1.1 2.4-2.4 2.4zM28 0H4a4 4 0 0 0-4 4v24a4 4 0 0 0 4 4h24a4 4 0 0 0 4-4V4a4 4 0 0 0-4-4zm2 28a2 2 0 0 1-2 2H4a2 2 0 0 1-2-2V4c0-1.1.9-2 2-2h24a2 2 0 0 1 2 2v24z"/></svg>