<!-- bell -->

<svg xmlns="http://www.w3.org/2000/svg" viewBox="0 0 32 32">
    <symbol id="bellSvg" viewBox="0 0 32 32">
        <path fill="#fff" d="M24 18v-8c0-5.5-4.5-10-10-10S4 4.5 4 10v8l-4 8h9.1c.5 2.3 2.5 4 4.9 4s4.4-1.7 4.9-4H28l-4-8zM14 28a3 3 0 0 1-2.8-2h5.6a3 3 0 0 1-2.8 2zM3 24l3-6v-8c0-4.4 3.6-8 8-8s8 3.6 8 8v8l3 6H3z" />
    </symbol>

    <!-- dashboard -->

    <symbol id="dashboardSvg" viewBox="0 0 32 32">
        <path fill="#fff" d="M25 18a3 3 0 0 0 3-3 3 3 0 0 0-3-3 3 3 0 0 0-3 3 3 3 0 0 0 3 3zm-1-4h2v2h-2v-2zm1 12a3 3 0 0 0 3-3 3 3 0 0 0-3-3 3 3 0 0 0-3 3 3 3 0 0 0 3 3zm-1-4h2v2h-2v-2zm-7 4a3 3 0 0 0 3-3 3 3 0 0 0-3-3 3 3 0 0 0-3 3 3 3 0 0 0 3 3zm-1-4h2v2h-2v-2zM28 0H6a4 4 0 0 0-4 4v24a4 4 0 0 0 4 4h22a4 4 0 0 0 4-4V4a4 4 0 0 0-4-4zm2 28a2 2 0 0 1-2 2H6a2 2 0 0 1-2-2V8h26v20zm0-22H4V4c0-1.1.9-2 2-2h22a2 2 0 0 1 2 2v2zM17 18a3 3 0 0 0 3-3 3 3 0 0 0-3-3 3 3 0 0 0-3 3 3 3 0 0 0 3 3zm-1-4h2v2h-2v-2zM9 26a3 3 0 0 0 3-3 3 3 0 0 0-3-3 3 3 0 0 0-3 3 3 3 0 0 0 3 3zm-1-4h2v2H8v-2zm1-4a3 3 0 0 0 3-3 3 3 0 0 0-3-3 3 3 0 0 0-3 3 3 3 0 0 0 3 3zm-1-4h2v2H8v-2z" />
    </symbol>

    <!-- members -->

    <symbol id="membersSvg" viewBox="0 0 32 32">
        <path fill="#fff" d="M18 16.4c1.3-1.7 2-3.9 2-6.4 0-5.5-4-10-9-10S2 4.5 2 10c0 2.4.8 4.6 2 6.4A6 6 0 0 0 0 22v4a6 6 0 0 0 6 6h10a6 6 0 0 0 6-6v-4a6 6 0 0 0-4-5.6zM4 10c0-4.4 3.1-8 7-8s7 3.6 7 8-3.1 8-7 8-7-3.6-7-8zm16 15.5c0 2.5-2.2 4.5-4.9 4.5H6.9C4.2 30 2 28 2 25.5v-3c0-2.1 1.6-3.9 3.8-4.4A8 8 0 0 0 11 20a8 8 0 0 0 5.2-1.9c2.2.5 3.8 2.2 3.8 4.4v3zM23 8h8c.6 0 1-.4 1-1s-.4-1-1-1h-8c-.6 0-1 .4-1 1s.4 1 1 1zm8 16h-6c-.6 0-1 .4-1 1s.4 1 1 1h6c.6 0 1-.4 1-1s-.4-1-1-1zm0-12h-8c-.6 0-1 .4-1 1s.4 1 1 1h8c.6 0 1-.4 1-1s-.4-1-1-1zm0 6h-6c-.6 0-1 .4-1 1s.4 1 1 1h6c.6 0 1-.4 1-1s-.4-1-1-1z" />
    </symbol>

    <!-- visits -->

    <symbol id="visitsSvg" viewBox="0 0 32 32">
        <path fill="#fff" d="M14 0h-2a2 2 0 0 0-2 2v28c0 1.1.9 2 2 2h2a2 2 0 0 0 2-2V2a2 2 0 0 0-2-2zm0 29c0 .6-.4 1-1 1s-1-.4-1-1V3c0-.6.4-1 1-1s1 .4 1 1v26zM4 9H2a2 2 0 0 0-2 2v19c0 1.1.9 2 2 2h2a2 2 0 0 0 2-2V11a2 2 0 0 0-2-2zm0 20c0 .6-.4 1-1 1s-1-.4-1-1V12c0-.6.4-1 1-1s1 .4 1 1v17zm20-13h-2a2 2 0 0 0-2 2v12c0 1.1.9 2 2 2h2a2 2 0 0 0 2-2V18a2 2 0 0 0-2-2zm0 13c0 .6-.4 1-1 1s-1-.4-1-1V19c0-.6.4-1 1-1s1 .4 1 1v10z" />
    </symbol>

    <!-- settings -->

    <symbol id="settingsSvg" viewBox="0 0 32 32">
        <path fill="#fff" d="M26 24H14.9a4 4 0 0 0-3.9-3 4 4 0 0 0-3.9 3H6c-.6 0-1 .4-1 1s.4 1 1 1h1.1a4 4 0 0 0 3.9 3 4 4 0 0 0 3.9-3H26c.6 0 1-.4 1-1s-.4-1-1-1zm-15 3.4A2.4 2.4 0 0 1 8.6 25c0-1.3 1.1-2.4 2.4-2.4 1.3 0 2.4 1.1 2.4 2.4 0 1.3-1.1 2.4-2.4 2.4zM26 8H14.9A4 4 0 0 0 11 5a4 4 0 0 0-3.9 3H6c-.6 0-1 .4-1 1s.4 1 1 1h1.1a4 4 0 0 0 3.9 3 4 4 0 0 0 3.9-3H26c.6 0 1-.4 1-1s-.4-1-1-1zm-15 3.4A2.4 2.4 0 0 1 8.6 9c0-1.3 1.1-2.4 2.4-2.4 1.3 0 2.4 1.1 2.4 2.4 0 1.3-1.1 2.4-2.4 2.4zM26 16h-2.1a4 4 0 0 0-3.9-3 4 4 0 0 0-3.9 3H6c-.6 0-1 .4-1 1s.4 1 1 1h10.1a4 4 0 0 0 3.9 3 4 4 0 0 0 3.9-3H26c.6 0 1-.4 1-1s-.4-1-1-1zm-6 3.4a2.4 2.4 0 0 1-2.4-2.4c0-1.3 1.1-2.4 2.4-2.4 1.3 0 2.4 1.1 2.4 2.4 0 1.3-1.1 2.4-2.4 2.4zM28 0H4a4 4 0 0 0-4 4v24a4 4 0 0 0 4 4h24a4 4 0 0 0 4-4V4a4 4 0 0 0-4-4zm2 28a2 2 0 0 1-2 2H4a2 2 0 0 1-2-2V4c0-1.1.9-2 2-2h24a2 2 0 0 1 2 2v24z" />
    </symbol>

    <!-- twitter -->

    <symbol id="twitterSvg" viewBox="0 0 32 32">
        <path fill="red" d="M32 3.1c-1.2.5-2.4.9-3.8 1A6.5 6.5 0 0 0 31.1.5c-1.3.8-2.7 1.3-4.2 1.6A6.3 6.3 0 0 0 22.2 0a6.6 6.6 0 0 0-6.6 6.6l.2 1.5A18.9 18.9 0 0 1 2.2 1.2c-.6 1-.9 2.1-.9 3.3 0 2.3 1.2 4.3 2.9 5.5-1.1 0-2.1-.3-3-.8v.1c0 3.2 2.3 5.8 5.3 6.4l-1.7.2-1.2-.1a6.7 6.7 0 0 0 6.1 4.6 13 13 0 0 1-8.2 2.8l-1.6-.1A18.6 18.6 0 0 0 28.7 7.4v-.8c1.3-1 2.4-2.2 3.3-3.5z" />
    </symbol>

    <!-- facebook -->

    <symbol id="facebookSvg" width="56.7" height="56.7">
        <path fill="green" d="M40.4 21.7h-7.6v-5c0-1.9 1.2-2.3 2.1-2.3h5.4V6.1H33c-8.3 0-10.1 6.2-10.1 10.1v5.5H18v8.6h4.8v24.1h10V30.3h6.8l.8-8.6z" />
    </symbol>

    <!-- google+ -->

    <symbol id="googlePlusSvg" width="56.7" height="56.7">
        <path fill="green" d="M40.4 21.7h-7.6v-5c0-1.9 1.2-2.3 2.1-2.3h5.4V6.1H33c-8.3 0-10.1 6.2-10.1 10.1v5.5H18v8.6h4.8v24.1h10V30.3h6.8l.8-8.6z" />
    </symbol>
</svg>

<svg>
    <use xlink:href="#bellSvg"/>
    <use xlink:href="#dashboardSvg"/>
    <use xlink:href="#membersSvg"/>
    <use xlink:href="#visitsSvg"/>
    <use xlink:href="#settingsSvg"/>
    <use xlink:href="#twitterSvg"/>
    <use xlink:href="#facebookSvg"/>
    <use xlink:href="#googlePlusSvg"/>
</svg>
